<svg width="32" height="32" viewBox="0 0 32 32" fill="none" xmlns="http://www.w3.org/2000/svg">
  <circle cx="16" cy="16" r="15" fill="#25D366"/>
  <path d="M16 9C12.13 9 9 12.13 9 16C9 17.62 9.55 19.12 10.5 20.25L9 23L11.9 21.56C13.1 22.39 14.6 22.9 16.2 22.9C20.07 22.9 23.2 19.77 23.2 15.9C23.2 12.03 20.07 9 16 9Z" fill="white"/>
  <path d="M14 12.5C14 12.5 13.25 13.25 12.9 14.1C12.55 14.95 13 15.8 13 15.8C13 15.8 14.25 16.55 15.1 16.2C15.95 15.85 16.8 15.4 16.8 15.4L17.6 16.2C17.6 16.2 17.15 17.05 16.5 17.7C15.85 18.35 15 19 15 19C14.25 18.75 13.5 18.25 13 17.5C12.5 16.75 12.25 15.75 12.5 15C12.75 14.25 13 13.5 13 13.5C13 13.5 13.75 13.25 14.5 13C15.25 12.75 14 12.5 14 12.5Z" fill="#25D366"/>
</svg>


